<svg xmlns="http://www.w3.org/2000/svg"  viewBox="0 0 64 64" width="48px" height="48px"><path d="M 32 10 C 19.85 10 10 19.85 10 32 C 10 44.15 19.85 54 32 54 C 44.15 54 54 44.15 54 32 C 54 19.85 44.15 10 32 10 z M 32 14 C 41.941 14 50 22.059 50 32 C 50 41.941 41.941 50 32 50 C 22.059 50 14 41.941 14 32 C 14 22.059 22.059 14 32 14 z M 31.984375 19.994141 C 31.292375 19.994141 30.730828 20.205906 30.298828 20.628906 C 29.865828 21.050906 29.660688 21.578891 29.679688 22.212891 L 29.996094 34.060547 C 30.035094 35.386547 30.706672 36.050781 32.013672 36.050781 C 33.282672 36.050781 33.927312 35.3875 33.945312 34.0625 L 34.320312 22.242188 C 34.339312 21.608187 34.123875 21.074578 33.671875 20.642578 C 33.220875 20.209578 32.657375 19.994141 31.984375 19.994141 z M 32 38.691406 C 30.465 38.691406 29.492188 39.988844 29.492188 41.089844 C 29.492188 42.190844 30.432 43.488281 32 43.488281 C 33.568 43.488281 34.507812 42.260844 34.507812 41.089844 C 34.507813 39.918844 33.535 38.691406 32 38.691406 z"/></svg>