<?xml version="1.0"?><svg xmlns="http://www.w3.org/2000/svg"  viewBox="0 0 30 30" width="30px" height="30px">    <path d="M 15 3 C 14.675 3 14.372563 3.0856562 14.101562 3.2226562 L 14.083984 3.2226562 L 4.625 8.0761719 C 4.259 8.2241719 4 8.581 4 9 C 4 9.416 4.2551875 9.7728281 4.6171875 9.9238281 L 4.6171875 9.9433594 L 14.091797 14.78125 L 14.099609 14.777344 C 14.371609 14.915344 14.674 15 15 15 C 15.326 15 15.628391 14.915344 15.900391 14.777344 L 15.908203 14.78125 L 25.382812 9.9433594 L 25.382812 9.9238281 C 25.744812 9.7728281 26 9.416 26 9 C 26 8.581 25.741 8.2241719 25.375 8.0761719 L 15.916016 3.2226562 L 15.898438 3.2226562 C 15.627438 3.0856562 15.325 3 15 3 z M 6.4765625 13.126953 L 4.625 14.076172 C 4.259 14.224172 4 14.581 4 15 C 4 15.416 4.2551875 15.772828 4.6171875 15.923828 L 4.6171875 15.943359 L 14.091797 20.78125 L 14.099609 20.777344 C 14.371609 20.915344 14.674 21 15 21 C 15.326 21 15.628391 20.915344 15.900391 20.777344 L 15.908203 20.78125 L 25.382812 15.943359 L 25.382812 15.923828 C 25.744812 15.772828 26 15.416 26 15 C 26 14.581 25.741 14.224172 25.375 14.076172 L 23.523438 13.126953 C 20.618437 14.613953 16.653422 16.637297 16.607422 16.654297 C 16.092422 16.884297 15.553 17 15 17 C 14.445 17 13.903719 16.883344 13.386719 16.652344 C 13.342719 16.636344 9.3825625 14.614953 6.4765625 13.126953 z M 6.4765625 19.126953 L 4.625 20.076172 C 4.259 20.224172 4 20.581 4 21 C 4 21.416 4.2551875 21.772828 4.6171875 21.923828 L 4.6171875 21.943359 L 14.091797 26.78125 L 14.099609 26.777344 C 14.371609 26.915344 14.674 27 15 27 C 15.326 27 15.628391 26.915344 15.900391 26.777344 L 15.908203 26.78125 L 25.382812 21.943359 L 25.382812 21.923828 C 25.744812 21.772828 26 21.416 26 21 C 26 20.581 25.741 20.224172 25.375 20.076172 L 23.523438 19.126953 C 20.618437 20.613953 16.653422 22.637297 16.607422 22.654297 C 16.092422 22.884297 15.553 23 15 23 C 14.445 23 13.903719 22.883344 13.386719 22.652344 C 13.342719 22.636344 9.3825625 20.614953 6.4765625 19.126953 z"/></svg>